<?xml version="1.0" encoding="utf-8"?><svg xmlns="http://www.w3.org/2000/svg" xmlns:xlink="http://www.w3.org/1999/xlink" width="407" height="514" preserveAspectRatio="xMidYMid" viewBox="0 0 407 514" style="z-index:1;margin-right:-2px;display:block;background-repeat-y:initial;background-repeat-x:initial;background-color:rgb(241, 242, 243);animation-play-state:paused" ><g transform="" style="animation-play-state:paused" ><linearGradient id="lg-0.4104360207490738" x1="0" x2="1" y1="0" y2="0" style="animation-play-state:paused" ><stop stop-color="#9f00fb" offset="0" style="animation-play-state:paused" ></stop>

  
<stop stop-color="#ff0000" offset="1" style="animation-play-state:paused" ></stop></linearGradient>
<path d="M 0 0 L 0 505.783 Q 67.8333 386.426 135.667 351.526 T 271.333 350.359 T 407 308.297 L 407 0 Z" fill="url(#lg-0.4104360207490738)" opacity="0.4" style="opacity:0.4;animation-play-state:paused" ></path>
<path d="M 0 0 L 0 402.864 Q 67.8333 428.161 135.667 395.264 T 271.333 293.28 T 407 283.521 L 407 0 Z" fill="url(#lg-0.4104360207490738)" opacity="0.4" style="opacity:0.4;animation-play-state:paused" ></path>
<path d="M 0 0 L 0 486.64 Q 67.8333 450.588 135.667 431.254 T 271.333 321.93 T 407 218.294 L 407 0 Z" fill="url(#lg-0.4104360207490738)" opacity="0.4" style="opacity:0.4;animation-play-state:paused" ></path>
<path d="M 0 0 L 0 413.283 Q 67.8333 346.075 135.667 325.961 T 271.333 311.394 T 407 241.77 L 407 0 Z" fill="url(#lg-0.4104360207490738)" opacity="0.4" style="opacity:0.4;animation-play-state:paused" ></path></g></svg>